<?xml version="1.0" encoding="UTF-8"?>
<!--Generator: Apple Native CoreSVG 175.5-->
<!DOCTYPE svg
PUBLIC "-//W3C//DTD SVG 1.1//EN"
       "http://www.w3.org/Graphics/SVG/1.1/DTD/svg11.dtd">
<svg version="1.1" xmlns="http://www.w3.org/2000/svg" xmlns:xlink="http://www.w3.org/1999/xlink" width="22.9492" height="16.6895">
 <g>
  <rect height="16.6895" opacity="0" width="22.9492" x="0" y="0"/>
  <path d="M4.38477 13.2715L6.77734 13.2715C7.35352 13.2715 7.73438 12.8809 7.73438 12.334L7.73438 10.5273C7.73438 9.9707 7.35352 9.58984 6.77734 9.58984L4.38477 9.58984C3.80859 9.58984 3.42773 9.9707 3.42773 10.5273L3.42773 12.334C3.42773 12.8809 3.80859 13.2715 4.38477 13.2715ZM0.791016 6.11328L22.168 6.11328L22.168 3.89648L0.791016 3.89648ZM3.06641 16.6895L19.8828 16.6895C21.9336 16.6895 22.9492 15.6836 22.9492 13.6719L22.9492 3.03711C22.9492 1.02539 21.9336 0.00976562 19.8828 0.00976562L3.06641 0.00976562C1.02539 0.00976562 0 1.02539 0 3.03711L0 13.6719C0 15.6836 1.02539 16.6895 3.06641 16.6895ZM3.08594 15.1172C2.10938 15.1172 1.57227 14.5996 1.57227 13.584L1.57227 3.125C1.57227 2.10938 2.10938 1.58203 3.08594 1.58203L19.8633 1.58203C20.8203 1.58203 21.377 2.10938 21.377 3.125L21.377 13.584C21.377 14.5996 20.8203 15.1172 19.8633 15.1172Z" fill="#ffffff" fill-opacity="0.85"/>
 </g>
</svg>
