<?xml version="1.0" encoding="UTF-8"?>
<!--Generator: Apple Native CoreSVG 175.5-->
<!DOCTYPE svg
PUBLIC "-//W3C//DTD SVG 1.1//EN"
       "http://www.w3.org/Graphics/SVG/1.1/DTD/svg11.dtd">
<svg version="1.1" xmlns="http://www.w3.org/2000/svg" xmlns:xlink="http://www.w3.org/1999/xlink" width="23.9844" height="19.248">
 <g>
  <rect height="19.248" opacity="0" width="23.9844" x="0" y="0"/>
  <path d="M3.06641 18.623L20.918 18.623C22.9492 18.623 23.9844 17.6074 23.9844 15.5957L23.9844 5.37109C23.9844 3.35938 22.9492 2.35352 20.918 2.35352L18.125 2.35352C17.3535 2.35352 17.1191 2.19727 16.6797 1.70898L15.8984 0.830078C15.4102 0.292969 14.9121 0 13.9062 0L10.0098 0C9.00391 0 8.50586 0.292969 8.01758 0.830078L7.23633 1.70898C6.79688 2.1875 6.55273 2.35352 5.79102 2.35352L3.06641 2.35352C1.02539 2.35352 0 3.35938 0 5.37109L0 15.5957C0 17.6074 1.02539 18.623 3.06641 18.623ZM3.08594 17.0508C2.12891 17.0508 1.57227 16.5332 1.57227 15.5176L1.57227 5.45898C1.57227 4.44336 2.12891 3.92578 3.08594 3.92578L6.18164 3.92578C7.06055 3.92578 7.53906 3.75977 8.02734 3.21289L8.78906 2.35352C9.3457 1.72852 9.63867 1.57227 10.498 1.57227L13.418 1.57227C14.2773 1.57227 14.5703 1.72852 15.127 2.35352L15.8887 3.21289C16.377 3.75977 16.8555 3.92578 17.7344 3.92578L20.8887 3.92578C21.8555 3.92578 22.4121 4.44336 22.4121 5.45898L22.4121 15.5176C22.4121 16.5332 21.8555 17.0508 20.8887 17.0508ZM11.9922 15.6445C14.9414 15.6445 17.3145 13.2812 17.3145 10.3027C17.3145 7.33398 14.9512 4.9707 11.9922 4.9707C9.0332 4.9707 6.66016 7.33398 6.66016 10.3027C6.66016 13.2812 9.0332 15.6445 11.9922 15.6445ZM11.9922 14.1602C9.87305 14.1602 8.13477 12.4512 8.13477 10.3027C8.13477 8.16406 9.86328 6.44531 11.9922 6.44531C14.1211 6.44531 15.8398 8.16406 15.8398 10.3027C15.8398 12.4512 14.1211 14.1602 11.9922 14.1602ZM17.7148 6.70898C17.7148 7.39258 18.2812 7.92969 18.9453 7.92969C19.5996 7.92969 20.1562 7.38281 20.1562 6.70898C20.1562 6.06445 19.5996 5.49805 18.9453 5.49805C18.2812 5.49805 17.7148 6.06445 17.7148 6.70898Z" fill="#ffffff"/>
 </g>
</svg>
